PathFileType	4	(X/Y/Z)	C:/Users/beibeiliu/ov580/test_trc/User1\sequence.36_training_dense_left.trc
DataRate	CameraRate	NumFrames	NumMarkers	Units	OrigDataRate	OrigDataStartFrame	OrigNumFrames
120	120	19	19	mm	120	185	246
Frame#	Time	ThumbCMC			ThumbMCP			ThumbIP			ThumbTip			IndexMCP			IndexPIP			IndexTip			MiddleMCP			MiddlePIP			MiddleTip			RingMCP			RingPIP			RingTip			PinkyMCP			PinkyPIP			PinkyTip			BackHand1			BackHand2			BackHand3	
		X0	Y0	Z0	X1	Y1	Z1	X2	Y2	Z2	X3	Y3	Z3	X4	Y4	Z4	X5	Y5	Z5	X6	Y6	Z6	X7	Y7	Z7	X8	Y8	Z8	X9	Y9	Z9	X10	Y10	Z10	X11	Y11	Z11	X12	Y12	Z12	X13	Y13	Z13	X14	Y14	Z14	X15	Y15	Z15	X16	Y16	Z16	X17	Y17	Z17	X18	Y18	Z18	
184	1.53333	-140.784	19.3915	44.2916	-133.748	33.5989	19.0546	-134.96	35.6892	-7.99347	-131.547	40.8731	-28.3644	-124.882	-4.22685	-36.2048	-93.5468	-4.47782	-40.6101	-70.6607	-5.06575	-14.6862	-115.662	-29.2384	-35.2089	-84.6318	-21.5111	-33.8169	-65.3858	-15.6445	-0.38839	-109.972	-48.9628	-24.7986	-80.2748	-39.6602	-17.5066	-71.998	-29.1655	15.1139	-111.275	-65.8705	-8.07624	-86.4909	-50.7301	-5.15029	-80.9777	-33.3117	19.6018	-158.63	-45.2752	23.3234	-162.011	-40.1649	59.0716	-164.357	-10.1649	33.6934	
185	1.54167	-138.971	19.8905	44.9357	-133.115	32.3345	17.3514	-134.942	36.058	-10.9522	-129.858	36.5612	-33.1801	-122.176	-3.22584	-37.9989	-92.4688	-5.66457	-40.2339	-70.9522	-4.95128	-13.8749	-117.836	-24.6646	-36.4975	-84.4285	-23.7331	-31.7978	-66.875	-17.2239	0.812523	-114.281	-47.0979	-23.1878	-81.7381	-38.3809	-20.1573	-73.1516	-28.1139	12.5278	-115.706	-63.4481	-7.27201	-84.8568	-51.9042	-3.17415	-83.1587	-32.0677	17.9215	-159.009	-43.9076	22.4475	-162.653	-38.3059	54.8993	-164.01	-8.34636	32.7619	
186	1.55	-139.809	22.6508	44.9343	-130.844	33.5012	16.5323	-129.339	39.0454	-10.7163	-122.758	37.6294	-32.4239	-124.459	-3.03901	-35.207	-87.679	-4.43201	-38.3592	-70.5122	-3.53031	-13.9352	-119.703	-28.3478	-33.6936	-81.9448	-21.3271	-30.6063	-66.3021	-16.4462	2.33801	-110.117	-44.434	-25.4098	-78.56	-39.8214	-16.5784	-72.6647	-29.7992	16.4496	-109.991	-66.5808	-8.01556	-86.8519	-51.2946	-5.68538	-85.1336	-28.3481	19.1626	-157.385	-48.3988	24.3331	-164.612	-40.3778	55.2064	-163.964	-7.05683	35.5489	
187	1.55833	-137.039	18.0771	44.7595	-126.04	31.1597	17.8123	-121.742	36.401	-12.0458	-113.985	34.7074	-35.4833	-120.151	-2.67738	-37.6779	-90.4421	-2.81131	-41.1351	-68.531	-1.22461	-9.1079	-115.159	-23.3622	-36.5216	-81.0782	-23.3431	-30.7358	-66.8594	-16.4897	2.14763	-109.55	-42.8511	-26.6623	-78.8696	-36.4046	-17.7817	-71.3892	-29.4951	12.0355	-109.227	-65.9458	-9.00708	-83.268	-52.616	-4.00777	-82.7262	-31.1682	20.6504	-156.026	-42.4407	18.3038	-161.886	-42.3022	54.2458	-163.457	-11.5059	31.4955	
188	1.56667	-135.502	20.5793	43.6236	-121.249	34.1397	15.22	-115.186	35.4647	-13.2493	-104.217	28.4011	-36.0543	-119.41	-0.340482	-37.5839	-87.9113	-1.7111	-40.2299	-68.2093	-2.95662	-8.27568	-117.123	-27.1437	-34.616	-80.7843	-21.4343	-30.9642	-65.8641	-13.7546	7.46451	-109.09	-46.2596	-26.0865	-76.6907	-40.0032	-16.3121	-72.3155	-28.7713	15.2815	-108.249	-62.651	-10.9607	-83.6846	-54.498	-4.75975	-80.4177	-35.1418	20.8125	-157.719	-46.7025	17.214	-163.188	-39.7665	56.5988	-163.036	-9.49066	29.5441	
189	1.575	-132.824	20.8527	42.6961	-116.79	29.3441	16.1709	-107.096	35.6249	-10.3663	-95.0517	28.5597	-36.0598	-119.378	3.27986	-36.1845	-84.4889	-1.01831	-38.7128	-66.3409	-1.14424	-9.66092	-115.184	-23.7629	-35.6677	-79.4036	-23.9447	-30.5582	-65.6352	-18.8929	7.31376	-108.348	-41.8621	-27.6985	-74.5623	-40.8175	-14.609	-71.1959	-29.5638	16.9237	-108.948	-63.7587	-11.8871	-86.0248	-51.9875	-5.53574	-82.9984	-32.6449	21.4923	-158.603	-40.4597	20.6021	-164.658	-38.6983	55.9409	-159.825	-5.12056	31.7073	
190	1.58333	-130.76	23.9208	42.8549	-111.351	32.6988	14.7747	-101.627	34.2046	-11.6742	-89.0672	27.9764	-33.3412	-117.776	2.31983	-34.7533	-85.2588	-4.97907	-37.051	-65.1124	-2.33713	-6.35789	-112.863	-23.1011	-36.0716	-76.1226	-20.2619	-29.3924	-64.4244	-19.9808	6.14721	-109.983	-46.8331	-25.0789	-76.6199	-38.6817	-17.3783	-70.4211	-33.4871	16.3399	-113.621	-62.5894	-9.58413	-84.8502	-51.3329	-4.99933	-82.6923	-30.9162	22.5665	-155.139	-43.6673	16.3762	-162.55	-39.8599	51.3862	-159.671	-3.03895	34.3746	
191	1.59167	-130.455	20.3946	41.475	-108.796	31.7364	20.1573	-97.7678	32.6523	-5.37564	-85.048	23.9904	-29.1109	-114.776	2.02979	-34.989	-81.3408	-2.18541	-36.9294	-64.5503	-4.31765	-7.22012	-111.845	-22.9402	-35.6071	-77.1298	-24.0084	-30.4792	-63.4661	-18.141	8.18587	-106.432	-40.8849	-27.0704	-74.2864	-39.8768	-14.8187	-70.3501	-32.7474	16.6892	-110.505	-59.7495	-9.74665	-83.1109	-52.1185	-5.44066	-84.5377	-30.8366	22.0786	-155.709	-43.1886	17.545	-162.568	-39.367	51.0707	-159.055	-7.79385	34.4834	
192	1.6	-128.725	24.0151	44.1021	-106.067	32.3668	18.6535	-94.7049	30.1472	-6.64459	-77.0098	25.4221	-29.3904	-112.579	2.9193	-36.608	-83.104	-4.35518	-36.4899	-62.7235	0.356278	-6.09365	-112.799	-23.2406	-34.2562	-76.626	-24.1309	-28.8029	-62.9494	-18.7425	6.58328	-104.894	-44.5497	-24.5981	-72.3808	-39.18	-14.0367	-69.8325	-27.1714	18.0914	-108.734	-64.6934	-7.85187	-80.7205	-53.9447	-4.08785	-78.916	-32.7643	23.5372	-153.939	-42.4463	21.1002	-161.47	-35.8853	56.0526	-158.353	-5.88401	33.9351	
193	1.60833	-129.239	24.3163	46.1166	-103.741	28.6849	21.6918	-90.4781	29.7521	-6.00184	-73.1522	27.8059	-24.9945	-110.686	3.10145	-36.5782	-80.3157	-0.406445	-35.6475	-61.617	-3.53461	-5.29595	-106.861	-21.9429	-35.1613	-75.1682	-23.0159	-28.1964	-63.5973	-18.6762	9.06791	-102.103	-44.9134	-23.9188	-71.7102	-37.4708	-12.1171	-67.804	-30.5311	17.1234	-109.88	-60.3578	-7.52711	-79.4465	-52.721	-2.3101	-80.0939	-30.807	27.2358	-152.339	-43.9896	17.581	-163.368	-41.0845	54.4299	-158.247	-4.37147	32.5236	
194	1.61667	-127.303	20.8723	41.9086	-101.178	30.273	21.1072	-86.8817	29.3283	-0.41626	-71.6504	22.9365	-23.004	-109.864	1.26659	-35.16	-75.8761	-1.18487	-33.601	-59.8908	-1.16459	-8.38416	-106.887	-21.2865	-34.3493	-71.1156	-21.3771	-25.3641	-62.2679	-18.7342	9.32672	-104.235	-44.538	-22.6877	-71.5951	-39.6363	-12.7261	-67.7626	-27.6342	21.8948	-107.115	-62.1398	-6.89364	-79.1275	-49.0727	0.996163	-80.4169	-29.2805	26.1236	-152.356	-43.5542	19.7988	-159.904	-38.9532	54.3983	-157.994	-6.72491	34.3565	
195	1.625	-125.432	21.0213	45.543	-98.9949	27.7075	24.4391	-83.7458	30.052	-1.8419	-65.6062	25.867	-18.2871	-110.45	2.81892	-34.19	-73.7662	-2.75358	-33.451	-58.5813	-2.35856	-5.31319	-104.201	-22.9918	-34.7941	-71.8345	-24.5001	-27.3266	-60.9856	-15.2189	12.6079	-101.904	-46.5922	-21.4477	-69.588	-41.2432	-11.4085	-64.8072	-30.75	19.4777	-102.986	-61.1163	-6.73097	-78.8839	-50.378	-1.00529	-80.9016	-28.2641	25.8811	-152.073	-42.4369	17.6821	-159.625	-38.0477	50.3132	-156.823	-6.91009	28.9311	
196	1.63333	-124.74	18.7549	43.6896	-97.218	27.1736	25.8676	-79.7663	30.5422	2.33469	-61.2306	25.6402	-21.7825	-107.838	4.07287	-34.7643	-76.3713	-3.16057	-34.7768	-57.4931	-4.40491	-4.09748	-105.289	-23.095	-33.485	-68.0694	-23.6171	-23.435	-58.7723	-12.4841	13.2758	-98.9878	-44.5634	-22.9095	-67.0626	-34.948	-10.0813	-63.923	-27.1863	20.3007	-102.781	-60.2116	-6.46995	-76.5133	-49.591	1.30986	-77.8108	-30.0799	27.6609	-150.515	-43.9238	17.6618	-161.108	-40.1265	51.6491	-155.664	-3.44945	32.4868	
197	1.64167	-123.35	22.9125	43.0162	-94.5346	26.4428	26.7984	-77.5147	27.3792	0.791467	-57.8497	26.3898	-17.4072	-104.075	4.23196	-35.7414	-71.1423	-2.71363	-32.5336	-56.1028	-2.00525	-5.4643	-102.863	-24.8544	-33.3923	-68.8547	-19.5132	-26.6422	-57.5651	-13.0673	13.497	-98.1895	-43.2227	-22.8317	-67.1762	-36.1484	-11.1178	-63.1045	-30.8051	20.7842	-101.105	-60.4817	-6.71241	-75.6954	-50.216	2.81273	-74.1162	-29.4905	25.8105	-149.008	-41.4442	16.2083	-158.325	-39.1558	53.9547	-153.818	-6.46113	29.0674	
198	1.65	-122.084	23.4204	45.8212	-93.3687	24.0952	25.3009	-75.7071	27.984	5.16724	-56.9933	24.4773	-16.6753	-105.769	2.61197	-33.4978	-71.1889	0.188727	-34.6866	-54.8521	-4.21391	-4.36092	-98.3534	-25.5588	-34.6106	-65.1644	-23.7858	-22.9337	-57.3839	-14.4771	12.963	-98.367	-46.8962	-21.9067	-65.0198	-41.0939	-8.45875	-61.5765	-29.5962	19.1796	-102.235	-63.5988	-5.3369	-74.0247	-52.8522	2.67503	-72.8279	-31.7224	26.554	-148.298	-43.7135	14.1428	-157.582	-38.3727	51.0181	-154.504	-5.91514	31.7958	
199	1.65833	-121.673	17.7465	41.7391	-92.9633	23.1455	22.1478	-73.5198	27.0796	-0.412681	-56.459	22.9564	-14.4734	-102.674	-1.59564	-35.8631	-71.4255	-4.24922	-33.8741	-53.4536	-2.90408	-4.40556	-99.1596	-24.0196	-35.416	-67.5563	-24.8217	-25.9859	-56.5567	-19.9534	10.2465	-97.8113	-45.4468	-22.6584	-66.4457	-40.2358	-10.8219	-62.4757	-31.8926	21.7725	-96.3932	-65.1942	-6.28334	-75.0512	-53.0728	1.32453	-73.4028	-34.804	27.7017	-146.89	-40.504	14.8214	-158.191	-39.8064	51.0702	-153.904	-3.04643	27.0792	
200	1.66667	-121.185	18.6606	40.7596	-92.1881	23.848	21.7754	-72.7393	27.3359	0.718827	-56.7875	19.3697	-16.348	-101.433	-3.9053	-36.5056	-71.5592	-4.97546	-35.2071	-52.4212	-3.54148	-4.71017	-102.692	-29.8349	-33.0336	-64.0325	-23.4372	-25.206	-56.6883	-22.6487	11.0427	-100.217	-45.7203	-22.2328	-66.6265	-43.9486	-12.3161	-62.7276	-31.6695	20.5346	-100.682	-64.9273	-5.44658	-74.4107	-54.531	2.91842	-74.0156	-34.3066	30.5249	-147.339	-44.8212	19.5142	-157.548	-42.4286	53.0746	-154.204	-9.40918	32.521	
201	1.675	-120.005	18.0855	40.1349	-90.3452	26.6245	24.8347	-74.4687	25.5486	2.83676	-55.5589	19.2653	-15.4697	-103.205	-7.94116	-34.2538	-67.9975	-10.7611	-32.7287	-53.4058	-8.94723	-6.33261	-100.662	-29.7593	-34.4546	-63.8575	-28.24	-24.0663	-54.0677	-24.5887	10.2132	-95.6852	-53.9758	-22.6415	-64.0029	-47.9992	-8.3291	-62.5328	-36.6899	23.6703	-98.0519	-70.0603	-5.1858	-70.6559	-57.3783	5.88054	-74.2753	-38.6123	29.3487	-146.116	-48.0585	16.3593	-156.4	-41.206	54.7345	-153.492	-10.3133	32.7384	
202	1.68333	-119.24	14.3266	43.5285	-92.5622	16.6431	18.8555	-75.4036	19.2004	-1.76567	-54.9683	16.0931	-19.4547	-104.122	-10.7239	-34.0888	-67.8564	-14.5176	-35.0792	-53.0211	-16.0373	-5.95042	-101.772	-35.2999	-33.2649	-62.8548	-32.5984	-26.026	-53.3035	-32.2569	8.74279	-96.5902	-54.8114	-22.2722	-65.4651	-50.7877	-12.9389	-61.0057	-40.7389	18.9162	-95.3331	-73.2694	-4.56552	-71.9902	-64.1361	2.76024	-71.446	-42.8588	29.1421	-144.03	-50.1428	17.5371	-155.845	-44.2161	53.1181	-149.294	-15.2826	28.8192	
